<mxfile host="app.diagrams.net" modified="2021-07-18T13:07:46.637Z" agent="5.0 (X11)" etag="VNi2I-SiE1AWBLiDvMZC" version="14.9.0" type="github">
  <diagram id="gjDmQaFpPGFA4EkT0sp6" name="Page-1">
    <mxGraphModel dx="783" dy="469" grid="1" gridSize="10" guides="1" tooltips="1" connect="1" arrows="1" fold="1" page="1" pageScale="1" pageWidth="1169" pageHeight="827" math="0" shadow="0">
      <root>
        <mxCell id="0" />
        <mxCell id="1" parent="0" />
        <mxCell id="LmM2c4uPYylhJrKxIr3_-1" value="&lt;div&gt;No - SQL&lt;/div&gt;&lt;div&gt;DB&lt;/div&gt;" style="shape=cylinder3;whiteSpace=wrap;html=1;boundedLbl=1;backgroundOutline=1;size=15;fillColor=#dae8fc;strokeColor=#6c8ebf;fontStyle=1" vertex="1" parent="1">
          <mxGeometry x="410" y="50" width="60" height="80" as="geometry" />
        </mxCell>
        <mxCell id="LmM2c4uPYylhJrKxIr3_-2" value="&lt;b&gt;SQL DB&lt;br&gt;&lt;/b&gt;" style="shape=cylinder3;whiteSpace=wrap;html=1;boundedLbl=1;backgroundOutline=1;size=15;fillColor=#dae8fc;strokeColor=#6c8ebf;" vertex="1" parent="1">
          <mxGeometry x="720" y="50" width="60" height="80" as="geometry" />
        </mxCell>
      </root>
    </mxGraphModel>
  </diagram>
</mxfile>
